# xmcd
#
# Track frame offsets:
#	150
#	16827
#	37375
#	62097
#	84795
#	114997
#
# Disc length: 2107 seconds
# Revision: 0
# Processed by: cddbd v1.5.2PL0 Copyright (c) Steve Scherf et al.
# Submitted via: dBpowerAMP V12.0
#
DISCID=41083906
DTITLE=E'voke - Runaway
DYEAR=1995
DGENRE=House
TTITLE0=Runaway [TTF Edit]
TTITLE1=Runaway [Biff ‘n’ Memphis Edit]
TTITLE2=Runaway [TTF 12”]
TTITLE3=Runaway [Original Mix]
TTITLE4=Runaway [UK Movin Mix]
TTITLE5=Runaway [Biff ‘n’ Memphis Mix]
EXTD=
EXTT0=
EXTT1=
EXTT2=
EXTT3=
EXTT4=
EXTT5=
PLAYORDER=
